<?xml version="1.0" encoding="iso-8859-1"?>
<!-- Generator: Adobe Illustrator 18.1.1, SVG Export Plug-In . SVG Version: 6.00 Build 0)  -->
<svg version="1.1" id="Capa_1" xmlns="http://www.w3.org/2000/svg" xmlns:xlink="http://www.w3.org/1999/xlink" x="0px" y="0px"
	 viewBox="0 0 314.672 314.672" style="enable-background:new 0 0 314.672 314.672;" xml:space="preserve">
<g>
	<g>
		<g>
			<g>
				<path style="fill:#010002;" d="M216.823,56.602c13.277,7.033,15.909,11.286,17.835,14.397c1.126,1.817,2.203,3.557,4.716,4.999
					l-3.269,18.205l11.259,2.018l3.166-17.71l0.201-0.147c1.012-0.74,2.023-1.447,3.095-2.121c2.143,3.535,6.462,5.314,8.077,5.869
					l8.001,6.875l0.642,0.158c5.646,1.349,11.46-2.252,12.809-7.876c0.843-3.606-0.256-7.234-2.633-9.752
					c0.843,0.158,1.632,0.267,2.382,0.267c2.056,0,4.656-0.865,5.401-4.966c1.871-10.421-12.717-21.473-33.211-25.15
					c-7.49-1.343-18.009-2.214-26.782-2.214c-17.704,0-20.799,3.312-21.501,6.201C205.89,50.151,211.661,53.866,216.823,56.602z
					 M228.517,44.919c8.354,0,18.732,0.859,25.819,2.127c18.368,3.302,29.92,12.564,28.794,18.814
					c-0.038,0.218-0.082,0.364-0.098,0.462c-0.626-0.011-1.621-0.228-2.758-0.49c-3.824-0.838-10.595-1.741-17.09,0.06l-8.153,3.329
					l-1.023,0.571c-2.029,1.126-3.813,2.246-5.553,3.476l-2.464-0.424l-3.057,17.041l-0.511-0.098l3.062-17.068l-2.072-0.827
					c-2.377-0.93-2.926-1.822-4.134-3.769c-2.132-3.427-5.336-8.61-19.918-16.344c-4.873-2.584-6.407-4.155-6.87-4.803
					C213.467,46.393,217.03,44.919,228.517,44.919z"/>
			</g>
			<g>
				<path style="fill:#010002;" d="M193.603,132.487l7.386,1.632c5.194,1.131,10.269,0.887,14.87-0.745
					c6.222,7.555,12.477,15.066,18.683,22.311c3.851,5.548,15.98,5.983,16.094,5.983h41.984c8.969,0,16.263-7.288,16.263-16.257
					c0-8.953-7.294-16.252-16.263-16.252h-35.974c-7.723-9.089-15.316-18.286-22.888-27.505
					c-1.702-9.769-8.545-16.638-18.906-18.912L126.132,63.21c-2.654-0.582-5.276-0.876-7.8-0.876
					c-15.681,0-25.493,11.215-28.098,21.8c-1.98,3.503-0.838,7.256,0.179,10.584c0.343,1.099,0.68,2.219,0.908,3.345l27.886,139.485
					c1.806,9.051,9.823,15.632,19.042,15.632c1.273,0,2.573-0.131,3.835-0.386c10.514-2.105,17.345-12.358,15.251-22.882
					l-2.382-11.922c3.231,0.441,6.445,0.016,9.41-1.131c35.751-13.755,41.043-37.225,41.016-49.996
					C205.357,155.865,201.305,144.094,193.603,132.487z M160.713,185.66c-2.502,0.963-11.689,5.39-12.967,6.494l-3.59,3.127
					l-0.952-4.612l-12.847-68.054l3.595-0.082c16.752,0,42.74,27.114,42.767,40.809C176.737,169.37,174.676,180.286,160.713,185.66z
					"/>
			</g>
		</g>
		<g>
			<path style="fill:#010002;" d="M54.586,190.968c16.361,0,29.67,13.304,29.67,29.67c0,16.361-13.309,29.67-29.67,29.67
				s-29.676-13.309-29.676-29.67C24.916,204.272,38.226,190.968,54.586,190.968 M54.586,166.052C24.487,166.052,0,190.539,0,220.638
				c0,30.094,24.487,54.581,54.586,54.581s54.586-24.487,54.586-54.581C109.173,190.539,84.692,166.052,54.586,166.052
				L54.586,166.052z"/>
		</g>
		<g>
			<path style="fill:#010002;" d="M260.074,190.968c16.372,0,29.681,13.304,29.681,29.67c0,16.361-13.309,29.67-29.681,29.67
				c-16.366,0-29.67-13.309-29.67-29.67C230.404,204.272,243.708,190.968,260.074,190.968 M260.074,166.052
				c-30.094,0-54.586,24.487-54.586,54.586c0,30.094,24.492,54.581,54.586,54.581c30.111,0,54.597-24.487,54.597-54.581
				C314.672,190.539,290.185,166.052,260.074,166.052L260.074,166.052z"/>
		</g>
	</g>
</g>
<g>
</g>
<g>
</g>
<g>
</g>
<g>
</g>
<g>
</g>
<g>
</g>
<g>
</g>
<g>
</g>
<g>
</g>
<g>
</g>
<g>
</g>
<g>
</g>
<g>
</g>
<g>
</g>
<g>
</g>
</svg>
